<svg xmlns="http://www.w3.org/2000/svg" version="1.1" viewBox="0 0 1664 1472" width="416" height="368">
<path transform="translate(0)" d="m0 0h1664v1472h-1664z" fill="#FCF6F1" fill-opacity="0.0"/>
<path transform="translate(351,264)" d="m0 0 5 2 5 5 7 8 10 16 4 10 4-1 8-11 15-16 2-2h7l-2 26-1 23 1 4 4-1 6-11 12-13 17-13 13-13 4 9 5 18 1 6v20l-4 15-5 10-7 9-10 7-4 2 1 5 6 18h26l17 3 13 4 3 2-1 3-22 13-16 13-7 7-5 6 1 11 3 17 31 1 5 1-1 5-14 17-11 16-3 5v8l2 14 30 4 4 2-4 8-7 8-11 15-4 6-1 6 2 12 10-1 16-3 16-2h13l1 5-5 6-10 7-15 15-12 16-6 10 1 18 36 1 1 5-11 18-10 15-6 10 1 7 2 7 9-3 29-11 9-3h6v6l-12 23-12 22-10 16-2 4 2 5 6 2 2 6 9 4 14 2 3 3-7 3-20 4-7 4v6l2 1h8l17-4h5l-1 4-8 6-11 7-2 3v5h7l11-4h6l1 2-4 4-8 7v4l11-1 13-6 14-8 9-6 5-1 4 19 5 17 2 4 10 5 10-19 17-34 4-3 4 5 7 24 8 32 1 7 5-1 19-10 13-8 10-10 3-8-1-9-2-15-5-29-2-5-5-5-10-18-8-11-9-10-5-6 5-5 18-11 6-3-1-5-3-3-2-15-17-3-19-4-13-5-14-7-13-10-9-11-8-16-3-12v-19l2-19 4-27v-10h-2l-1 6-2-1-4-15-6-14-3-8-4-14-2-12v-7l4-15 8-14 6-8 7-6v-3l-11-6-4-4-2-7 12 3h8l11-3 16-8 21-10 21-7 20-5 20-3h30l23 4 14 4 10 4 16 8 12 8 6 5v2h3l-2-6-2-20 8 2 14 10 6 7 4 10v9l-2 4v2l5 2 23 10 12 5v3l-11 7-13 2 4 8 5 20 2 19v16l-2 19-5 19-2 5v7l3 4 1 6 1 3 2-4h2l3-10 6-13 4-8 2-16 4-20 4-10 1-5-7 2h-4v-2l10-7 12-12 7-9 11-13 9-10 7-7 13-9 21-7 11-2 16-1h19l17 1 23 4 19 6 15 6 15 9 11 9 15 16 2 1-5-11v-4l5 2 6 4 10 9 8 9 5 13 1 7-1 3h-2l4 8 8 11 9 15 6 13 7 19 4 16 3 25v24l-3 24-6 24-9 24-12 31-7 22-3 18v21l5 19 7 14 9 10 12 7 7 2h11l10-4 11-11 3-1v12l-2 15-5 17-8 17-8 11-7 9-10 9-18 11-12 5-12 3-8 1h-17l-16-3-16-6-14-7v-2l-4-1-3-2v-2l-4-2-5-4-7-8v-2h-2l-1-2-1-11-6-21-14-34-4-10-4-22-2-10v-4h-2v8l2 9v7l-9 9-10 6-16 4h-11l-19-3-23-6-7-3v-2l-11 1-16 6-17 9-21 21-8 7-4 2-2-2-6 4-6 7-1 2-3 1-4 5-11 9-10 5-8 2-13 2 5 4 2 2-4 4-28 14-3 5h21l21 2 23 6 15 6 19 12 11 9 13 13 11 9 13 8 11 5 33 9 25 1 5 7 4 1 4-2h45l1 2-5 10-8 13-8 14-1 1 1 7 7 12 3 1 37-14 7-2h5l1 2-4 10-15 28-12 21-2 3 1 9 2 5 50 1 2 3-5 8-9 11-12 17-8 14v6l3 8h16l22-2h8l-1 7-14 30-5 12 1 4 5 7 4-2 17-16 12-12 8-7 4-3h5v14l-4 44-3 15 21-1 5-5 11-13 5-3 2 1 4 20 36-1h153l32 1-1-6-6-12v-6l13 1 35 4h6l8-11 1-5-18-10-28-17-5-5 2-4 18-4 44-7 6-1v-14l-42-5-2-1 2-6 17-17 9-11 8-10-1-5-5-9-2-1-45-1-1-5 8-13 9-10 7-7v-4l-9-1-32 8h-7l-1-5 9-20 6-16-1-5-4-4v-2l-3-1-5-5-5 1-25 9-10 2-1-5 7-36 1-10-5-7-4-1-19 10-19 9-8 1-1-4 11-27 12-28 2-3-1-6-5-10-9-6-18-8-22-9-2-1 1-4 4-4 15-8 21-10v-12l-8-10-9-9-11-9-13-12 1-4 12-3 15-2 21-1 3-12v-5l-8-16-12-21-9-13 1-5h12l25 5 13 4 5-1 8-10-1-10-4-21-1-9 4-1 14 7 13 9 5-2 6-5 4-10 3-18 5-1 7 8 3 5 4 1 12-5 4-16 3-13h4l15 20 9-1 13-2 12-1h30l20 3 12 4 2 2-1 1-13-1h-27l-17 4-15 6-16 9-14 10-12 11-14 14-10 13-12 18-10 18-8 19-5 15-4 19-2 18v9l3 23 5 18 12 23 10 13 11 12 8 8 14 11 12 9 19 14 17 12 17 14 8 7 13 12 8 8 9 11 8 9 13 18 11 18 8 15 7 17 5 17 4 20 2 14v24l-4 25-5 19-8 22-9 18 19 2 40 6v119h-1664v-81l39-7 30-5 29-4 25-3 43-4 46-3 82-3 110-3 48-1 42-6 12-1h41l53 3h7l-9-7-18-12-16-13-12-11-8-8-9-11-10-14-9-15-7-15-6-20-4-18-1-15-20-30-13-22-10-21-10-26-9-27-3-8-5-3-11-7-18-14-6-4-5 2-8 6-3 7v28l1 15 3 9 8 6 5-1 8-6 12-3 3-1v-2l8-7 2-2h5l3 7v11l-2 4-2 9-6 9h-2l-2 4-15 11-9 4-10 2-18-1-13-4-10-5-5-5-4-5-6-10-2-7v-11l10-41 2-20 2-29 3-11 6-10 8-6 7-3h11l11 4 12 7 12 9 9 6-6-44-7-70-6-62-4-31-8-45-9-36-4-14-4 2-5 5-11 10-15 11-18 11-17 8-24 8-20 4-9 1h-20l-18-2-19-5-16-6-19-10-13-9-13-11-8-8-10-13-9-15-8-18-6-21-12-9-5-4-8-11-2-5-1-12 2-9 5-9 5-5 8-6 10-4 2-2 12-36 7-17 11-23 13-22 9-14 11-15 13-15 7-8 9-10 14-14 11-9 10-9 19-14 21-14 21-12 6-3-1-5-3-9v-22l4-18 5-12h3l7 9 13 10 8 7 8 8 5 8h2l3-35 1-7z" fill="#74B09F"/>
<path transform="translate(722,409)" d="m0 0h30l23 4 14 4 10 4 16 8 12 8 6 5v2h3l-2-6-2-20 8 2 14 10 6 7 4 10v9l-2 4v2l5 2 23 10 12 5v3l-11 7-13 2 4 8 5 20 2 19v16l-2 19-5 19-2 5v7l3 4 1 6 1 3 2-4h2l3-10 6-13 4-8 2-16 4-20 4-10 1-5-7 2h-4v-2l10-7 12-12 7-9 11-13 9-10 7-7 13-9 21-7 11-2 16-1h19l17 1 23 4 19 6 15 6 15 9 11 9 15 16 2 1-5-11v-4l5 2 6 4 10 9 8 9 5 13 1 7-1 3h-2l4 8 8 11 9 15 6 13 7 19 4 16 3 25v24l-3 24-6 24-9 24-12 31-7 22-3 18v21l5 19 7 14 9 10 12 7 7 2h11l10-4 11-11 3-1v12l-2 15-5 17-8 17-8 11-7 9-10 9-18 11-12 5-12 3-8 1h-17l-16-3-16-6-14-7v-2l-4-1-3-2v-2l-4-2-5-4-7-8v-2h-2l-1-2-1-11-6-21-14-34-4-10-4-22-2-10v-4h-2v8l2 9v7l-9 9-10 6-16 4h-11l-19-3-23-6-7-3v-2l-11 1-16 6-17 9-21 21-8 7-4 2-2-2-6 4-6 7-1 2h-3v-2h2l1-4 7-16 1-3-20 7-13 7-10 7-15 8-6 2h-10l-1-4 5-5 9-7 1-2-7 1-10 4h-9l-2-5 4-5h3v-2h3v-2l17-10 1-1-9 1-10 2h-16l-3-3 1-4 4-4 20-5 13-2-1-1-24-4-6-4v-5l3-3h22l14 3h3l-9-12-4-9v-7l2-3 10 1 10 7 8 7 12 13 7 8 4 1 9-6-3-12-7-18-8-16-12-21-13-22-10-15-10-14-9-11-10-12-7-6-7 1-18 6-5 2h-4l-1-2-46 2-17-3-19-4-13-5-14-7-13-10-9-11-8-16-3-12v-19l2-19 4-27v-10h-2l-1 6-2-1-4-15-6-14-3-8-4-14-2-12v-7l4-15 8-14 6-8 7-6v-3l-11-6-4-4-2-7 12 3h8l11-3 16-8 21-10 21-7 20-5z" fill="#EFCBB4"/>
<path transform="translate(500,1200)" d="m0 0 4 1 7 8 9 10 11 12 9 9 8 7 16 13 17 12 19 12 22 12 19 9 28 10 31 9 24 6 2 1v3h2l7 12 2 6-26 6-21 6-21 8-14 8-11 9-7 7-9 14-4 9-3 12v11l3 7 6 7 6 1h350l16-4 8-6 7-10 4-11 1-7 83 3 22 10 32 12 36 10 28 6 25 4 31 3 47 2h13l39-2 36-4 29-6 36-11 6-2 22-10 20-11 9-1 42 5 30 5 21 5 13 5 3 3-1 5-8 4-19 5-39 7-48 5-6 1h-1524v-81l39-7 30-5 29-4 25-3 43-4 46-3 82-3 110-3 48-1 42-6 12-1h41l53 3h7l-9-7-18-12-16-13-12-11-8-8-9-11-10-14-9-15-7-15-6-20-3-13z" fill="#539F89"/>
<path transform="translate(1019,454)" d="m0 0h19l17 1 23 4 19 6 15 6 15 9 11 9 15 16 2 1-5-11v-4l5 2 6 4 10 9 8 9 5 13 1 7-1 3h-2l4 8 8 11 9 15 6 13 7 19 4 16 3 25v24l-3 24-6 24-9 24-12 31-7 22-3 18v21l5 19 7 14 9 10 12 7 7 2h11l10-4 11-11 3-1v12l-2 15-5 17-8 17-8 11-7 9-10 9-18 11-12 5-12 3-8 1h-17l-16-3-16-6-14-7v-2l-4-1-3-2v-2l-4-2-5-4-7-8v-2h-2l-1-2-1-11-6-21-14-34-4-10-4-22-4-17-5-14-2-6h-2l-7 8-14 12-21 14-17 9-14 6-10 1 3-3 17-7 16-8 13-8 12-9 14-12 7-7 5-11 1-5v-7l-5-9-3-4 1-1 26-4 16-5 23-11 17-13 8-8 3-4 6 1 4 2h11l10-4 8-7 5-8 3-7 1-5v-12l-3-8-7-5-3-1h-10l-11 4-5 2v2l-4 1-2 4-9 8-6 7-9 6-3-1 9-10 1-2-20 9-7 1-2-1-1-4-1-14-8-18-8-11-3-1 1 5 1 6-2 3-9-1-16-5-16-8-9-7-2 1-3 5-5-1-14-10-12-11-8-9-12-20-6-16-1-10-2-1-3 12-1 8v22l-5 1-4-4-7-14-3-8v-11h-3l-3 9-11 36-11 45-2 13v16l3 13 7 14 9 10 9 8 17 10 12 5 1 2-3 17-2 1h-24l-7-2-2-1v-2l-6-2v-2l-5-2-8-9v-2h-2l-7-12-6-17-4-16-2-16v-20l3-22 5-21 8-22 6-13 4-8 2-16 4-20 4-10 1-5-7 2h-4v-2l10-7 12-12 7-9 11-13 9-10 7-7 13-9 21-7 11-2z" fill="#DE4302"/>
<path transform="translate(1653,867)" d="m0 0h11v486h-7l-33-5-19-3 2-6 8-17 9-27 4-19 2-15v-24l-4-25-5-19-6-17-8-17-10-17-12-17-11-14-10-11-7-8-9-9-8-7-13-11-13-10-17-12-12-9-11-8-16-13-8-7-11-11-10-13-8-13-8-17v-5l6-1 8 3 22 3 7 4h5l3-1v-2l11-8 9-5 15-3 11-1 15 3 12 6 7 1 3-9 2-7 5-7 11-8 13-3 10-1h5l5 3h6l5-6 5-10 10-13 10-8 12-7z" fill="#FCF6F2"/>
<path transform="translate(722,409)" d="m0 0h30l23 4 14 4 10 4 16 8 12 8 6 5v2h3l-2-6-2-20 8 2 14 10 6 7 4 10v9l-2 4v2l5 2 23 10 12 5v3l-11 7-13 2 4 8 5 20 2 19v16l-2 19-5 19-5 10-7-2h-11v2l-6 3-4 4-2 5 11-4 9-1 7 3v3l-5 1 4 9-1 6-7 7-5 1 1-4 1-5-9 1-4 5-2 5h-4l1-7 4-6 7-4h8v2l6 2-2-7h-2v-2l-10-2-10 6-4 5-4 9-4 10-7 10-10 10-13 8-8 4-4-1 2-6 5-9-1-9-5-12-8-17-3-10v-9l13-28 1-3v-14l-6-12-4-5-4 1-5-8-10-5-5 1-1-5 1-1 9 1 7 3 1-18-5 1-11 6-8 9-6 12-7 19-5 14-8 15-3 4-4-1-9-15-3-13v-9h-3l-14 10-10 6h-3l1-5 3-6v-15l-5-15-2-10v-19l4-13-22 9-11 8-12 11-3 5h-2l-1 4h-2l-10 20-7 18-4 13-2-1-4-15-6-14-3-8-4-14-2-12v-7l4-15 8-14 6-8 7-6v-3l-11-6-4-4-2-7 12 3h8l11-3 16-8 21-10 21-7 20-5z" fill="#EDBB54"/>
<path transform="translate(452,1358)" d="m0 0h7v1l-11 2-10 5-18 8-18 12-12 11-8 11-5 13-3 11-23 3-31 7-4 3 1 4 11 4 26 5 29 4 52 5 46 3 9 1v1h-490v-81l39-7 30-5 29-4 25-3 43-4 46-3 82-3 110-3z" fill="#72BFC6"/>
<path transform="translate(949,566)" d="m0 0 3 1 1 10 6 16 10 17 9 11 8 8 12 9 8 5 4-1 3-5 8 6 15 8 16 5 7 2h5l1-5-2-5 1-4 4 2 9 13 7 16 1 18 9-1 17-8h3l-2 4-7 8 6-2 9-8 6-7 6-5 3-3h2v-2l9-5 7-2h10l8 4 4 5 2 6v12l-3 9-4 8-9 10-9 4-3 1h-11l-6-3-5 1-7 8-9 8-13 9-23 11-19 5-21 3 6 9 2 4v7l-3 10-5 8-10 10-10 8-13 10-15 9-24 11-8 3 9-1 18-8 18-10 16-11 11-10 8-7 2-3 3 1 4 12 3 8-1 3v8l2 9v7l-9 9-10 6-16 4h-11l-19-3-23-6-2-1v-3h-2v-2h-6l2-4-5-12-8-11-7-8-10-10 1-4 8-6-3-10-6-12v-6l-3-1h32l2-18-16-7-16-10-14-14-6-10-5-14-1-6v-16l4-22 11-43 10-31 3-7h3l1 11 7 17 4 7 6 1v-22l2-13z" fill="#EFCBB2"/>
<path transform="translate(1045,824)" d="m0 0 1 2h2l5 24 2 12 18 44 6 21 1 18-2 19-4 34v19l2 9v6l-12 4-21 4-29 4-11 1-3 1-25-1-30-8-12-5-14-8-10-9-8-7-7-6-5-5-6-5-13-8-9-5-15-6-20-5-21-2h-19l-2-1 1-4 8-5 24-12v-3l-6-5 4-2 14-2 7-3 8-4 12-10 2-3h3l2-5 7-7h3l1-2 3 2 8-7 10-9 15-15 23-11 9-3h11v2l5 1 16 5 13 3 15 2h11l16-4 11-7 7-7v-7l-2-9z" fill="#C2A4FC"/>
<path transform="translate(100,24)" d="m0 0 11 1 14 5 13 9 10 10 7 9 5 9 3 3 6 1 1-1 10-1 14 3 9 4 5 2 5 8 5 9 4 4 9 2 14-4 13-1 20 4 14 6 9 6 11 1 5-2h22l12 2 9 6 8 7 5 7 3 9 1 14-4 3-4 1h-27l-83-1-172-1-23-1-11-1-3-1-1-2-2-22-1-29v-32l4-13 7-11 9-10 9-6 12-4z" fill="#FEFEFE"/>
<path transform="translate(776,703)" d="m0 0 5 1 8 7 9 11 10 12 15 22 11 18 20 35 3 5 3 7 7 18 3 12-10 7-5-2-14-15-7-8-5-4-10-7-10-1-1 2v7l6 12 7 9-4 1-14-3h-22l-2 2v5l5 3 28 5-3 2-22 4-11 3-4 4v5h18l15-3h6l-5 4-13 8h-2v2h-3v2l-5 3-1 4 1 2h9l12-5h6l-2 4-10 8-3 1v5h10l12-5 17-10 9-6 11-5 15-5 1 3-7 15-3 6h-2l-1 5-14 12-10 5-8 2-14 2-18-1-20-2-16-3-7 1-32 9h-5l-8-18-8-16-6-11 1-3 17-10 11-11 3-8-1-9-2-15-5-29-2-5-5-5-10-18-8-11-9-10-5-6 5-5 18-11 6-3-1-5-3-3-1-6v-9l2-1 43-2 1 3 9-3z" fill="#C1A4FC"/>
<path transform="translate(1595,481)" d="m0 0h10l9 2 12 6 10 9 8 13 4 12 3 17v20l-5 31-4 15-4 4-16 3-67 1-21 1-52 1h-155l-6-4v-14l3-10 8-11 10-5 10-3 1-1 10-1h16l6 1h9l13-5 7-3 13-5 9-1h15l10 4h10l11-4 5-4 4-11 6-5 5-3 16-4 15 1 5-2 3-9 5-7 4-2 1-2h2l1-4 5-6h2v-2l14-8 10-4z" fill="#FEFEFE"/>
<path transform="translate(152,975)" d="m0 0h14l11 4 13 7v2l4 2 5 4 3 4v2l3 1 7 11 7 9 4 1 10-3 13 1 8 3 10 6 5 5 5 4 3 11 1 3h9l9-5 13-2h23l8-2v13l-10 41v19l-6-3-12-1-37-1-31-2-52-1-21-1h-52l-13-2-1-4-2-25v-61l3-9 6-9 11-11 8-5 16-5z" fill="#FDFDFD"/>
<path transform="translate(875,645)" d="m0 0h3v14l-1 9v20l3 21 5 18 7 16 3 4v2h2l6 8 5 4 2 1v2l4 1 2 1v2l3 1v2h3l2 8 7 15 1 5-9 7 1 4 15 15 8 12 5 10 1 4-2 2 5 1v2h2l-1 2-4-1v-2l-11 1-16 6-17 9-21 21-8 7-4 2-2-2-6 4-6 7-1 2h-3v-2h2l1-4 7-16 1-3-20 7-13 7-10 7-15 8-6 2h-10l-1-4 5-5 9-7 1-2-7 1-10 4h-9l-2-5 4-5h3v-2h3v-2l17-10 1-1-9 1-10 2h-16l-3-3 1-4 4-4 20-5 13-2-1-1-24-4-6-4v-5l3-3h22l14 3h3l-9-12-4-9v-7l2-3 10 1 10 7 8 7 12 13 7 8 4 1 9-6-3-12-7-18-8-16-12-21-13-22-10-15-10-14-9-11-10-12-9-7 4-3 14-6 15-10 9-7 12-12 7-10h8l2 1 13-1 8-5z" fill="#F1CBB3"/>
<path transform="translate(1022,1419)" d="m0 0 83 3 22 10 32 12 36 10 28 6 25 4 31 3 47 2h13l39-2 36-4 29-6 36-11 6-2 22-10 20-11 9-1 42 5 30 5 21 5 13 5 3 3-1 5-8 4-19 5-39 7-48 5-6 1h-986l-1-2 18-1 31-4 13-3 28-3 4-1 4 1h153l37 2 30 1 14-1h14l22-1 39-1h42v-2l16-4 8-6 7-10 4-11z" fill="#308A97"/>
<path transform="translate(1653,867)" d="m0 0h11v132l-7 2h-44l-61 1-32 1h-40l-14 1-12 3-8-7-5-3-9-11-7-10-11-21-1-8 6-1 8 3 22 3 7 4h5l3-1v-2l11-8 9-5 15-3 11-1 15 3 12 6 7 1 3-9 2-7 5-7 11-8 13-3 10-1h5l5 3h6l5-6 5-10 10-13 10-8 12-7z" fill="#FDFDFD"/>
<path transform="translate(678,759)" d="m0 0 4 2 7 7 10 14 11 19v2l4 2 2 5 6 33 2 15-1 8-3 6-11 11-17 10-16 8-4-1-3-15-10-39-4-11-3-2-5 7-11 23-12 24-3 2-10-6-4-10-5-19-1-11-10 5-16 10-12 6-8 2h-6l-1-5 7-7 5-2v-3h-6l-11 4-7-1-1-5 5-5 9-6 8-6 1-3-22 5h-8l-3-2v-6l8-5 24-5 2-2-8-2-11-2-7-4v-7l5-4 19-8 4-2-2-6-1-6 3-3 9-1 10 6 13 12 7 8 11 12 8-4 17-12 19-14z" fill="#F0CCB5"/>
<path transform="translate(501,977)" d="m0 0h10l15 6 14 9 19 14 11 9 7 7 4 8v8l-4 9-6 8-4 3h-7l-11-8-14-11-7-5h-5l-10 9-2 5v35l1 12 4 6 5 4h5l10-6 3-1h14l9 6v2l5 1-1 5-7 10-9 9-12 9-8 4-10 1-23-2-11-4-7-4v-2h-2l-6-7-7-12-2-5 1-14 9-40 2-12 2-36 4-12 7-10 8-6z" fill="#539F89"/>
<path transform="translate(954,752)" d="m0 0 11 2 12 3 16 3 2 1v2l10-1h30l2 4 5 7 1 3v7l-3 10-5 8-10 10-10 8-13 10-15 9-24 11-8 3 9-1 18-8 18-10 16-11 11-10 8-7 2-3 3 1 4 12 3 8-1 3v8l2 9v7l-9 9-10 6-16 4h-11l-19-3-23-6-2-1v-3h-2v-2h-6l2-4-5-12-8-11-7-8-10-10 1-4 8-6-3-10-6-12v-6l-3-1h32l2-17z" fill="#EEBC55"/>
<path transform="translate(1604,1344)" d="m0 0 48 7 12 2v119h-140v-1l36-4 24-3 38-7 19-6 3-2-1-5-8-4-17-5-26-5-29-4-27-3-5-1 5-4 12-9 10-8 12-11 1-2h2l2-4 10-11 11-16z" fill="#72BFC6"/>
<path transform="translate(875,645)" d="m0 0h3v14l-1 9v20l3 21 5 18 7 16 3 4v2h2l6 8 5 4 2 1v2l4 1 3 3 1 3-11 1-21 8-27 11-10 4-3 2-11-20-11-18-8-12-10-14-9-11-10-12-9-7 4-3 14-6 15-10 9-7 12-12 7-10h8l2 1 13-1 8-5z" fill="#FCF6F1" fill-opacity="0."/>
<path transform="translate(806,835)" d="m0 0h4l7 11 4 6-7-1-11-2h-22l-2 2v5l5 3 28 5-3 2-22 4-11 3-4 4v5h18l15-3h6l-5 4-13 8h-2v2h-3v2l-5 3-1 4 1 2h9l12-5h6l-2 4-10 8-3 1v5h10l12-5 17-10 9-6 11-5 15-5 1 3-7 15-3 6h-2l-1 5-14 12-10 5-8 2-14 2-18-1-20-2-16-3-7 1-32 9h-5l-8-18-8-16-6-11 1-3 17-10 11-11 3-8-1-17 6-2 27-1 22-2 9-2 9-1 6-2z" fill="#DE4302"/>
<path transform="translate(1530,1422)" d="m0 0 15 1 33 4 30 5 21 5 13 5 3 3-1 5-8 4-19 5-39 7-48 5-6 1h-232l-6-2-17-2v-1l27 1 41 1 41-2 36-4 29-6 36-11 6-2 22-10 20-11z" fill="#308A97"/>
<path transform="translate(1211,1329)" d="m0 0 1 2 36-1h153l32 1 2-2 5 13 1 8-7 6-2 1h-6l-26-11-19-9-8-5 7 36v10l-8 2h-6l-8-7-9-10-11-11-7-8-10-10-5-2 1 21v32l-1 1h-11l-21-3-2-5-2-15-6-18-3-1-5 5-8 9-7 8-8 9-9-1-9-4-4-5-9-29z" fill="#72BFC5"/>
<path transform="translate(706,796)" d="m0 0 4 5v2l4 2 2 5 6 33 2 15-1 8-3 6-11 11-17 10-16 8-4-1-3-15-10-39-4-11-3-2-5 7-11 23-12 24-3 2-10-6-4-10-5-19-1-12 21-9 30-12 31-13 21-10h2z" fill="#FCF6F1" fill-opacity="0.0"/>
<path transform="translate(858,978)" d="m0 0 6 1 19 12 11 9-4 2-19 7-8 4 3 5 3 4-1 4-36 15-30 12-24 9-6-2-9-10-10-15-10-16-6-12-3-9v-11l5-5 4-1 8 4 13 10 14 12 9 7 1 7-2 10-2 6 4-1 2-9 1-11 2-3 14-7 14-9 15-10 2-1 9-1z" fill="#EEBD55"/>
<path transform="translate(566,898)" d="m0 0h8l14 11 11 9 14 12 3 2 5-1 9-6 26-17 11-7 5 1 7 14 8 11 10 13-1 4-21 8-55 22-16 6-4-2-9-10-16-24-7-12-6-15-1-3v-11z" fill="#DE4302"/>
<path transform="translate(999,1454)" d="m0 0 3 1-3 3-7 3-18 3-1 1-13 2-20 2h-10l-17 2-2 1h-373l-1-2 18-1 31-4 13-3 28-3 4-1 4 1h153l37 2 30 1 14-1h14l22-1 39-1h42v-2z" fill="#389397"/>
<path transform="translate(967,1281)" d="m0 0 4 2 11 22 8 14 8 12 9 13 5 6v2h2l7 8 14 14 8 7 11 9 10 7 15 10 21 12 3 3h-21l-58-2-2-2-4-15-8-16-7-11-10-13-12-16-5-9-3-7-4-16-2-19z" fill="#72BFC6"/>
<path transform="translate(545,397)" d="m0 0h7l9 4 11 7 7 7 7 10 5 10 6 15 5 4 9 5-1 4-8 7-11 18-3 9-3 14-2-3v-2l-4-2-5-5-9-8-10-8-1-2v-55l-8-17z" fill="#F1CCB5"/>
<path transform="translate(1037,802)" d="m0 0 3 1 4 12 3 8-1 3v8l2 9v7l-9 9-10 6-16 4h-11l-19-3-23-6-2-1v-3h-2v-3l10-3 16-7 18-10 16-11 11-10 8-7z" fill="#EDBD57"/>
<path transform="translate(391,1032)" d="m0 0 5 2 13 10 15 11 8 4 3 3 1 13-2 1-2 5-8 4-2 5-3 3h-2v2l-5 3-10 2-9 7-6-1-7-6-3-9-1-18v-25l3-7 10-8z" fill="#FDFDFD"/>
<path transform="translate(401,467)" d="m0 0h18l10 6 7 8 4 8 1 3v12l-6 12-9 8-9 4-10 1-11-4-8-6-7-10-2-7v-10l3-8 4-6 9-8z" fill="#DE4302"/>
<path transform="translate(183,436)" d="m0 0h10l10 4 8 6 6 10 2 9v8l-4 10-6 7-10 6-7 2h-9l-12-5-6-5-6-10-1-3v-17l6-11 8-7 6-3z" fill="#DE4302"/>
<path transform="translate(1166,1259)" d="m0 0h5v14l-4 44-2 12h-2l-1 7-4-1-10-8-12-11-9-9-2-4 1-4 11-13 17-17 8-7z" fill="#549F8A"/>
<path transform="translate(524,410)" d="m0 0 9 3 16 13 4 5-1 11-3 9-4 14-6 12-8-1-11-8-8-8-2-4v-7l8-29 4-8z" fill="#F1CCB5"/>
<path transform="translate(652,832)" d="m0 0 5 5 7 24 8 32v8l-11 2-5-2-30-11-1-1v-6l24-48z" fill="#549F8A"/>
<path transform="translate(1503,1250)" d="m0 0 5 1-4 16-6 17-6 11-3 1-18-10-28-17-5-5 2-4 18-4 25-4z" fill="#54A08A"/>
<path transform="translate(554,720)" d="m0 0h6v6l-12 23-12 22-10 16-5-1-4-9-10-32v-6l20-8h2v-2l21-8z" fill="#549F89"/>
<path transform="translate(1039,1434)" d="m0 0 4 1 3 3 2 1 4-5h3v2h3l-1 5-4 1h6 2l3-1 1-2h4l-1 7-6 2 2 6h-10l1 4 6 1-1 3-5 3-1-5-7 2h-8l-6 3 1 1 17 1h6l7 1h50l11-1h22l9 3v2h-144l-1-6 6-1-1-2-2 1-5-3 3-3v-3l5-3h2v-2l5-4 1-3 4-7z" fill="#379398"/>
<path transform="translate(727,1331)" d="m0 0h14l35 1 45-1 12 7 6 5v3l-85 3h-17l-7-9-3-6z" fill="#FDF7F2"/>
<path transform="translate(455,693)" d="m0 0h7l6 9 5 16 3 16v16l-3 7-6 4-6-1-7-7-7-14-2-9v-19l3-11 5-6z" fill="#539F89"/>
<path transform="translate(374,333)" d="m0 0h10l12 2 9 4 5 5-2 5-7 6-9 4-12 3-8 1h-23l-7-4-2-3v-5l6-7 11-7 10-3z" fill="#539F89"/>
<path transform="translate(527,597)" d="m0 0h13l1 5-5 6-10 7-15 15-12 16-5 8h-2l-3-9-4-31 1-7 5-2v-2l20-4z" fill="#55A08A"/>
<path transform="translate(1092,1095)" d="m0 0h5l1 2-4 10-15 28-12 21-4 2-3-6-7-21-5-13 1-6 7-2v-2l29-11z" fill="#55A08A"/>
<path transform="translate(471,397)" d="m0 0 23 1 14 4 6 3-1 3-22 13-16 13-11 11-3-1-5-35-1-11z" fill="#549F89"/>
<path transform="translate(941,1036)" d="m0 0 8 1 23 6 5 5 8 9v2h2l7 11 1 2v7l-6 5-9-1-16-9-14-11-12-12-1-4 2-9z" fill="#539F89"/>
<path transform="translate(1326,789)" d="m0 0h12l25 5 11 3 3 3-1 6-10 18-10 19-4-2-8-17-12-20-7-10z" fill="#55A08A"/>
<path transform="translate(1316,1332)" d="m0 0 5 1 17 17 7 8 12 12 7 8 1 3-9 2-30 3h-8l-2-33z" fill="#529E89"/>
<path transform="translate(0,1428)" d="m0 0 4 1 11 10 17 12 22 12 16 8v1h-70z" fill="#FBF5F2"/>
<path transform="translate(1073,1175)" d="m0 0h44l3 2-5 8-9 11-12 17-7 12-3 1-3-5-7-24-5-16v-4z" fill="#539F89"/>
<path transform="translate(1360,991)" d="m0 0 4 4 4 10 12 19 2 5-4 4-16 8-19 9-8 1-1-4 11-27 11-26z" fill="#55A08A"/>
<path transform="translate(365,1432)" d="m0 0h8l1 13 3 5v2h2l5 5 8 4 12 2 30 3v1h-11l-47-5-28-4-24-5-8-4-1-4 5-4 31-7z" fill="#308A97"/>
<path transform="translate(1205,1310)" d="m0 0 3 1 6 29 8 25v4l-6-1-25-12-9-6-7-4 7-11 5-5 13-16z" fill="#539F89"/>
<path transform="translate(1330,862)" d="m0 0h19l2 2-3 13-3 24-1 7-4-1-9-10-13-12-11-9-5-5 1-4 12-3z" fill="#55A08A"/>
<path transform="translate(1373,1332)" d="m0 0 6 2 8 5 24 11 17 7v3l-23 10-21 7-3-1-7-33z" fill="#539F89"/>
<path transform="translate(1501,1186)" d="m0 0 2 1 4 19 2 15v11h-20l-23-3-2-1 2-6 17-17 9-11z" fill="#55A08A"/>
<path transform="translate(1340,926)" d="m0 0h4l3 14 4 22v7l-5-1-15-7-27-11-2-1 1-4 4-4 15-8 10-5z" fill="#55A08A"/>
<path transform="translate(1426,1307)" d="m0 0h5v2l16 1 32 4-6 9-7 7h-2v2l-16 14-3 2-4-1-7-18-8-16z" fill="#539F89"/>
<path transform="translate(1128,1240)" d="m0 0h6v6l-14 30-3 8h-2l-1 3-4-2-8-15-8-16-4-9 3-2z" fill="#549F89"/>
<path transform="translate(351,264)" d="m0 0 5 2 5 5 7 8 10 16 4 10-2 4-19 1-14 1 2-37 1-9z" fill="#549F89"/>
<path transform="translate(1041,1052)" d="m0 0h16v6l-11 18-8 14-4 1-16-24v-2h-2l-6-8v-3l2-1z" fill="#549F89"/>
<path transform="translate(346,470)" d="m0 0h7l8 5 4 5 2 6-1 8-4 6-7 5-8 1-8-3-6-7-2-4v-8l5-8 6-5z" fill="#29222C"/>
<path transform="translate(241,449)" d="m0 0 10 1 8 7 3 6v8l-4 7-6 5-9 2-8-3-7-8-2-9 5-10 7-5z" fill="#29222C"/>
<path transform="translate(1392,1042)" d="m0 0 3 1 4 6 9 10 7 8 6 7-1 4-19 7-10 4-8 1-1-5 6-30h2l1-10z" fill="#55A08A"/>
<path transform="translate(1471,1134)" d="m0 0 3 1 11 18 8 12v3h-46l-1-5 8-13 7-8 5-3z" fill="#55A08A"/>
<path transform="translate(1436,1095)" d="m0 0 4 1 7 7 9 11 7 8-1 4-5 3-28 7h-7l-1-5 9-20z" fill="#55A08A"/>
<path transform="translate(858,978)" d="m0 0 6 1 19 12 11 9-4 2-19 7-8 4-4-2-10-14-5-8v-3l10-5z" fill="#F0CCB7"/>
<path transform="translate(855,816)" d="m0 0h2l6 12 7 21-2 4-8 5-5-2-14-15-7-8-4-4 1-3 16-8z" fill="#DE4302"/>
<path transform="translate(509,676)" d="m0 0h17l3 1 1 5-12 19-11 17-4 4-2-2-5-32v-9l6-2z" fill="#549F89"/>
<path transform="translate(1271,1343)" d="m0 0 4 2 6 18 2 17-1 3-22-3-16-3v-4l12-13 8-10 5-6z" fill="#539F89"/>
<path transform="translate(411,275)" d="m0 0h7l-2 26-1 14-3 7-5-1-17-9-5-2v-3l4-5 4-8 16-17z" fill="#55A08A"/>
<path transform="translate(967,1281)" d="m0 0 4 2 11 22 8 14 12 18v2h-25l-3-5-5-19-2-19z" fill="#FDF7F2"/>
<path transform="translate(262,376)" d="m0 0 6 1 6 4 1 1-1 7-5 5-8 7-11 8-7 4-7-1-4-4v-8l7-9 8-7 12-7z" fill="#539F89"/>
<path transform="translate(466,477)" d="m0 0h37l-1 5-14 17-11 16-3 4-3-1-1-4-2-20z" fill="#549F89"/>
<path transform="translate(748,625)" d="m0 0h8l8 6 5 7-1 8-6 8-6 4h-8l-8-5-6-10 1-6 6-8z" fill="#DE4302"/>
<path transform="translate(106,583)" d="m0 0h7l7 4 5 6 1 3v7l-3 5-8 7-8 2-6-3-6-5-2-4v-10l6-8z" fill="#539F89"/>
<path transform="translate(496,826)" d="m0 0 6 3 7 8 9 13 5 7 1 7-4 5-7 1-6-4-5-4-11-16-3-6v-7l5-5z" fill="#539F89"/>
<path transform="translate(1047,678)" d="m0 0 9 1 8 6 3 6v8l-5 8-7 4h-8l-8-5-4-5-1-10 3-5 8-7z" fill="#DE4302"/>
<path transform="translate(917,813)" d="m0 0 1 3-13 10-14 10-13 9-7 5-2-1-7-21v-6h10l23-4z" fill="#FCF5EF"/>
<path transform="translate(313,590)" d="m0 0 7 2 5 4 4 7 1 7-5 10h-2v2l-7 4-7-1-5-3-4-5-1-3v-10l4-8 4-4z" fill="#539F89"/>
<path transform="translate(739,710)" d="m0 0h6l1 3 9-1-1 4-16 6-16 7-11 6h-4l-6-7-1-6v-9l2-1z" fill="#BFA5F9"/>
<path transform="translate(476,544)" d="m0 0 30 2 4 2-4 8-7 8-11 15-4 6h-2l-2-4-4-33z" fill="#549F8A"/>
<path transform="translate(689,893)" d="m0 0h2l13 25 2 6-6 1-8 3h-3l-1 2-7-10-8-13-2-6 7-2z" fill="#EFBE57"/>
<path transform="translate(334,655)" d="m0 0h7l9 4 8 7 7 9v3l-5-1-8-11h-2l-6 10-9 10-10 10-14 9-17 7-12 3-7 1h-19l-9-2-2-4 15 1h14l12-2 15-5 15-8 10-8 8-7 10-14 2-5-12-4z" fill="#29222C"/>
<path transform="translate(1153,662)" d="m0 0h10l8 4 4 5 2 6v12l-4 6h-2l-1-17-6-3h-18l-9 4-8 6-4 5-2 3h-2v2h-4l1-5 9-9 2-4 4-5 4-1v-2l9-5z" fill="#FAEFE0"/>
<path transform="translate(599,843)" d="m0 0h2l4 19 3 11v8l-4-1-12-7-11-8-5-4 2-4 7-6 11-7z" fill="#55A08A"/>
<path transform="translate(305,296)" d="m0 0 6 1 12 5 9 4 3 2 6 1 3 1-1 3-19 7-11 4h-4l-4-13z" fill="#539F89"/>
<path transform="translate(1146,674)" d="m0 0h18l4 3v4l-4-2h-3l3 8v7l-4 6-6 4h-4l1-5 1-3-1-2-7 1-7 8-3 1-1-5 4-6 5-4 6-2 7 4h3l-1-6-3-3-8-1-11 6-8 7h-3l1-6 7-7 8-5z" fill="#3B2829"/>
<path transform="translate(365,1432)" d="m0 0h8l1 13 3 5v2h2l5 5 8 4 12 2 30 3v1h-11l-47-5-28-4v-1h6v-2h2v-2l-2-1v-8h3v-2l9-3 5-2v-3l-6-1z" fill="#389497"/>
<path transform="translate(737,1333)" d="m0 0 23 1h9l2 1 17 1 17-2 4-1h13l7 4v2l-6 2h-66l-9 2-4 3-8 1 2-6v-5z" fill="#FEFEFE"/>
<path transform="translate(919,655)" d="m0 0h11l6 5 3 7-1 5-7 8-3 2-8-1-6-5-3-6 1-8 5-6z" fill="#DE4302"/>
<path transform="translate(620,612)" d="m0 0h7l6 4 4 6 1 5-3 6-7 6h-8l-6-4-3-3-1-9 3-6 5-4z" fill="#DE4302"/>
<path transform="translate(736,428)" d="m0 0h23l13 4 4 4-4 1-12-4h-27l-14 3-23 7-19 7-23 5-20 2-8-2v-2h15l16-3 28-8 27-9 16-4z" fill="#29222C"/>
<path transform="translate(1384,748)" d="m0 0 7 1 10 6 11 8-1 5-10 8-7 8-3-1-6-28z" fill="#539F89"/>
<path transform="translate(902,872)" d="m0 0h5l-6 7-13 13-8 7-4 2-2-2-6 4-6 7-1 2h-3v-2h2l1-4 7-16 5-7 24-9z" fill="#FCF4EE"/>
<path transform="translate(865,609)" d="m0 0 9 3v3l-5 1 4 9-1 6-7 7-5 1 1-4 1-5-9 1-4 5-2 5h-4l1-7 4-6 7-4h8v2l6 2-2-7h-2v-2l-10-2-10 6-3 3h-2l1-5 6-7 11-4z" fill="#35292E"/>
<path transform="translate(311,572)" d="m0 0h9l10 3 11 8 6 9 3 8v16l-5 10-7 8-10 6-6 2h-16l-9-4-6-5-1-3 16 8h17l8-4 8-7 5-9 1-4v-15l-5-10-5-5-8-6-16-3z" fill="#539F89"/>
<path transform="translate(1488,1450)" d="m0 0 7 1 2 5-3 5-5 3v4l5-1 10-7 3-4 6-1 7 1v2l-13 10-2 4h-33l2-4h2v-2l4 1 5-10h2z" fill="#389498"/>
<path transform="translate(486,782)" d="m0 0 5 3 5 13 1 9-3 6-1 1h-5l-6-7-5-13v-6h2l2-4z" fill="#539F89"/>
<path transform="translate(396,1035)" d="m0 0 4 2 13 10-3 2h2l1 4 4 1 2 2-1 4-28-4-3-2-1-7 4-5 9-1z" fill="#FDF7F2"/>
<path transform="translate(800,457)" d="m0 0 5 1 7 8 7 12 4 15 3 18 2 22 4 21 1 6-5-2-2-6-3-23-3-29-5-18-7-14-8-9z" fill="#29222C"/>
<path transform="translate(307,366)" d="m0 0h6l5 4v7l-5 4-5 2-6 1h-11l-2-1-1-7 5-5 10-4z" fill="#539F89"/>
<path transform="translate(780,489)" d="m0 0 5 2-2 2-13 3-16 8-9 7-7 7-8 13-4 9-3 15-1 13h-4v-11l2-14 6-15 8-12 11-11 14-9 13-5z" fill="#29222C"/>
<path transform="translate(736,471)" d="m0 0 3 1-2 4-10 8-3 3h-2l-2 4-6 7-5 10-1 32-3 5-6 5-5-1 5-5 3-4 1-3v-27l5-12 9-12 13-11z" fill="#29222C"/>
<path transform="translate(888,1018)" d="m0 0h7l9 4 7 6 2 5-2 4-4 2-7-1-12-7-5-7 1-4z" fill="#539F89"/>
<path transform="translate(1471,705)" d="m0 0 4 2 8 11 3 4 1 5-15 6-6 1v-11l3-15z" fill="#57A18C"/>
<path transform="translate(850,499)" d="m0 0 5 3 9 14 6 14 2 10v22l-3 14-2 5-5 1 1-4 3-11 1-7v-19l-4-15-8-16-6-9z" fill="#29222C"/>
<path transform="translate(648,463)" d="m0 0h21l4 1-1 3-24 1-16 5-11 6-13 11-7 8h-3l1-5 10-11 14-10 10-5z" fill="#29222C"/>
<path transform="translate(798,746)" d="m0 0h2l-1 5-11 11-14 11-13 9-17 10-11 5-14 5-2 1v-5l16-6 16-8 12-7 14-10 11-9 5-4z" fill="#29222C"/>
<path transform="translate(1082,948)" d="m0 0h5l1 2 7 4 3 2v2l4 2 3 1v2l4 1 6 3 1 4-5-1 4 7 1 2-6-1-2-1v-2h-2v-2l-4-2-12-8-7-9z" fill="#FDFAF7"/>
<path transform="translate(291,347)" d="m0 0h9l5 5-1 5-8 4-5 1h-11l-3-2-1-5 1-3 9-4z" fill="#539F89"/>
<path transform="translate(1037,798)" d="m0 0 2 3-10 11-11 9-9 7-16 10-15 8-14 6-10 1 3-3 17-7 16-8 13-8 12-9 14-12z" fill="#29222C"/>
<path transform="translate(1077,1032)" d="m0 0 1 4-9 11-5 4h-5l-6-3-5-1-1-6 6-4z" fill="#FDFDFC"/>
<path transform="translate(1389,1466)" d="m0 0h9v1l-25 3-3 2h-78l-6-2-17-2v-1l27 1 41 1 41-2z" fill="#539F89"/>
<path transform="translate(810,574)" d="m0 0 2 1-1 5-8 16-2 6-1 15 9 25 1 7-3 2-2-2-3-13-5-12-2-8v-9l4-14 8-15z" fill="#29222C"/>
<path transform="translate(651,481)" d="m0 0h6l-1 3-10 5-13 9-7 7-8 11-7 14-4 9-3-1 3-11 8-16 12-14 13-10z" fill="#29222C"/>
<path transform="translate(462,797)" d="m0 0h5l6 12 1 4v7l-4 5-4-1-5-6-2-4v-14z" fill="#539F89"/>
<path transform="translate(710,469)" d="m0 0h2l-1 5-8 8-7 11-4 12-1 12 2 11 1 4-4 1-2-1-2-9v-13l3-14 7-13 9-10z" fill="#29222C"/>
<path transform="translate(793,474)" d="m0 0 5 5 6 17 3 20v16l-2 12-1 3h-4l1-8 1-3v-25l-5-22-5-14z" fill="#29222C"/>
<path transform="translate(855,616)" d="m0 0 8 2 2 1v2h2l3 5-1 3-6-3v-2l-10 2-6 4-5 11-3-1-1 2h-2l1-8 5-9 9-7z" fill="#F2EAE7"/>
<path transform="translate(949,647)" d="m0 0h9l3 3 1 9-4 5-8 1-5-4-2-4 1-6z" fill="#342429"/>
<path transform="translate(647,602)" d="m0 0h7l5 4 1 7-4 6-4 2h-5l-5-6v-8z" fill="#312329"/>
<path transform="translate(427,1084)" d="m0 0h5l3 7v11l-2 4-5-2-14-7 1-2h2v-2l8-7z" fill="#EFBF5E"/>
<path transform="translate(558,784)" d="m0 0h6l4 5-1 8-4 1-27-2v-2l21-9z" fill="#58A18C"/>
<path transform="translate(492,1109)" d="m0 0h4l2 14 7 8 9 6 3 1h19l-4 4-4 1h-14l-6-3-9-7-6-9-2-7v-7z" fill="#29222C"/>
<path transform="translate(1025,661)" d="m0 0 6 1 5 5 1 7-3 4-7 2-7-4-2-4 1-6z" fill="#372428"/>
<path transform="translate(1529,1457)" d="m0 0 4 2-1 2h-2l2 5 5 1 31-2h10v1l-48 5-6 1h-13l2-4 7-3h3v-2l-2-1 4-4z" fill="#389498"/>
<path transform="translate(1148,665)" d="m0 0 4 2 2 3-9 3v2l-10 5-9 8-3 5h-2v2h-4l1-5 9-9 2-4 4-5 4-1v-2l5-3z" fill="#F6EFEB"/>
<path transform="translate(725,610)" d="m0 0 9 3 1 1v8l-6 7-3 1-8-7-1-7 5-5z" fill="#322329"/>
<path transform="translate(460,312)" d="m0 0 2 2-3 4-6 3-3 3-1 7v14l-3 6-3 3h-2l2-4 2-9v-11l-5 5-3 7-1 5-1 14h-3v-10l2-10 5-10 6-8 12-9z" fill="#29222C"/>
<path transform="translate(978,668)" d="m0 0 9 3 4 4 1 5-4-1-6-5-5-1-5 3-2 3 1 8 4 3 8 1v4l-5 1-7-2-6-7-1-7 3-6 6-5z" fill="#2D222A"/>
<path transform="translate(1434,727)" d="m0 0 5 1 8 11-1 4-11 7-6 1 3-14 1-9z" fill="#54A08A"/>
<path transform="translate(561,1085)" d="m0 0 4 1 3 5v13l-1 1-7-1-9-7 1-5z" fill="#EFBE56"/>
<path transform="translate(678,621)" d="m0 0 6 1 6 4v7h-3l-3-5-7-2-3 1-4 6 1 6 4 4 5 1 6-1-1 4-2 1h-9l-6-5-3-5v-7l4-6 5-3z" fill="#2B222B"/>
<path transform="translate(506,1351)" d="m0 0h41l53 3h7l-2-3 5 2 9 6v1h-8l-7-1-4-2-6-1-40-2-15-1h-30l-22 2h-7v-1z" fill="#75B1A0"/>
<path transform="translate(358,1108)" d="m0 0 4 1 1 10 5 9 8 7 7 3 14 3v2h-15l-12-6-7-7-4-6-2-7v-8z" fill="#29242D"/>
<path transform="translate(806,835)" d="m0 0h2v2l-15 4-36 6-28 1-4-3 3-1 27-1 22-2 9-2 9-1 6-2z" fill="#2A3742"/>
<path transform="translate(1146,680)" d="m0 0 8 1 5 6-1 5-4-1-6-3-6 2-8 6-2-4v-3l8-6z" fill="#F5EDE9"/>
<path transform="translate(750,712)" d="m0 0h5l-1 4-16 6-16 7-11 6h-4l1-4 22-11 14-6z" fill="#292630"/>
<path transform="translate(998,763)" d="m0 0h3l-1 4-19 8-23 11-4 1v-3l13-8 19-8z" fill="#29222C"/>
<path transform="translate(1163,1329)" d="m0 0 1 3h21l-7 11-1 1-7-1-6-3-1-3z" fill="#72BFC4"/>
<path transform="translate(1153,662)" d="m0 0h10l6 3-2 1-5-1 2 1 3 5 2 6-5-2h-19v-2h2l1-2 5-2-3-3h-6l2-2z" fill="#EBC7B2"/>
<path transform="translate(1530,1422)" d="m0 0 15 1 18 2v1h-13l-9 1 3 5v1l-7 2-8 3v3h-10l-2-2 6-2v-2l14-7v-3l-7-2z" fill="#379398"/>
<path transform="translate(665,1461)" d="m0 0 5 1v6l-1 4h-24l1-7 3-1 13 1z" fill="#2F8694"/>
<path transform="translate(580,529)" d="m0 0 2 4 5 12 3-1v-5l1 3h2l-1 7-1 3-2 1 2 8-6-2-4-12-3-8z" fill="#FDFDFD"/>
<path transform="translate(594,448)" d="m0 0 8 6 9 5-1 4-8 7-3 2-4-15z" fill="#FDF7F2"/>
<path transform="translate(873,654)" d="m0 0h3v14l-1 23-4-3-2-17 1-12z" fill="#FDFDFD"/>
<path transform="translate(1036,1041)" d="m0 0 6 2 4-1v3l-4 2h-31l-3 3h-2v-4l8-3z" fill="#FDFDFD"/>
<path transform="translate(1074,1442)" d="m0 0h5v2h7l3 4h2 5l-3 3-6 1-2-1-5 2v-4l-5 2-1 2-4-1v-3l-2-2 3-4z" fill="#379398"/>
<path transform="translate(1018,698)" d="m0 0 1 3-5 6-9 6-8 3-11 1-6-2-4-2v-3l5 1 2 1h14l8-4z" fill="#2B222B"/>
<path transform="translate(819,601)" d="m0 0 4 2 3 10v23l-2 6-3-1v-29l-2-7z" fill="#29222C"/>
<path transform="translate(720,647)" d="m0 0 1 2-7 10-10 6-8 3-9 1-6-2v-2h10l7-2 10-5 8-9z" fill="#2A222B"/>
<path transform="translate(840,927)" d="m0 0h2v2l-5 2v2l-7 5-6 3h-7l-6-5 4-2 14-2 7-3z" fill="#F8E9D5"/>
<path transform="translate(133,622)" d="m0 0 3 1-8 10-9 6-10 4h-13v-3l6-1 9-1 12-6 8-7z" fill="#539F89"/>
<path transform="translate(342,1436)" d="m0 0 4 1v2l-3 1-2-1 1 4h-5l1 2-9-1-2-1-5 1v2h-4v2l3 3-5-2-1-4 5-4z" fill="#379398"/>
<path transform="translate(375,703)" d="m0 0h3l2 6v6h-7l-9 1 1-5 6-5z" fill="#FDFDFD"/>
<path transform="translate(1063,582)" d="m0 0 7 1 8 5 5 5 3 4-2 4-4-2-8-9-8-5z" fill="#29222C"/>
<path transform="translate(784,870)" d="m0 0h7l-1 2h-2l-3 10h-10l-2-1 1-5 3-3h2v-2z" fill="#FCF4EE"/>
<path transform="translate(761,527)" d="m0 0 9 1 8 5 6 7 1 4-4 1-5-8-10-5-5 1-1-5z" fill="#33242A"/>
<path transform="translate(791,891)" d="m0 0 6 1-1 4-3 3h-2l1 4-1 1h-9l-1-4 4-5h3v-2h3z" fill="#FBF0E4"/>
<path transform="translate(471,1110)" d="m0 0h5l1 13 5 9v2l-5-1-6-10z" fill="#29222C"/>
<path transform="translate(952,559)" d="m0 0 5 1v3l-11 5-9 4h-4l2-4 12-7z" fill="#29222C"/>
<path transform="translate(648,516)" d="m0 0h6l-1 5h-3l-5 1-9 8h-4l1-5 6-5z" fill="#2A222B"/>
<path transform="translate(340,1109)" d="m0 0 3 1 1 14 3 7 2 4-4-1-6-6v-17z" fill="#2A252E"/>
<path transform="translate(386,1035)" d="m0 0 2 1-7 8 2 5-4 8-1 18-2 1v-28l3-7z" fill="#FDF7F2"/>
<path transform="translate(171,435)" d="m0 0 5 1-1 2-3 1-1 3-6 5-5 8h-2l-2 4-2 1 2-5 3-6 8-11z" fill="#479B98"/>
<path transform="translate(441,503)" d="m0 0 2 2-3 6-2 6h-3v2l-2 1-2 5-5 3-4-1v2h-5v-2l12-6 7-8z" fill="#72BCBE"/>
<path transform="translate(900,581)" d="m0 0h1l-1 7-4 9-4 8-3-3 6-17z" fill="#FBF2E4"/>
<path transform="translate(890 1e3)" d="m0 0 5 1 8 7 3 3v2h-5l-6-5-5-3-1-3z" fill="#58A18D"/>
<path transform="translate(416,311)" d="m0 0h2l4 8v6l-4 4-3-3v-8z" fill="#FDFDFC"/>
<path transform="translate(1661,1464)" d="m0 0h3v8h-17l4-4z" fill="#E0BECD"/>
<path transform="translate(566,787)" d="m0 0 2 2-1 8-4 1-27-2v-2l10-4h2v2l-2 1 10 2 10 1z" fill="#75B1A0"/>
<path transform="translate(907,533)" d="m0 0 4 1-2 5-1 8-3 1-3-2-1-6 3-6z" fill="#FDFDFD"/>
<path transform="translate(790,1015)" d="m0 0h1v12l-2 9-5 2-1-2 3-8 2-12z" fill="#29222C"/>
<path transform="translate(605,1351)" d="m0 0 5 2 9 6v1h-8l-7-1-4-2-6-1v-2h13z" fill="#74B3A6"/>
<path transform="translate(873,898)" d="m0 0 3 2-2 4-13 11-2-1 6-9 5-5h3z" fill="#3D9399"/>
<path transform="translate(1045,824)" d="m0 0 1 2h2l4 19-1 3h-2l-1 2-3-16z" fill="#F6E4D8"/>
<path transform="translate(544,809)" d="m0 0 13 1 3 3-7 3-10 1 4-7z" fill="#75B1A0"/>
<path transform="translate(806,835)" d="m0 0h2v2l-15 4-18 3-10-1v-1l12-1 9-2 9-1 6-2z" fill="#2B3D47"/>
<path transform="translate(1146,680)" d="m0 0 8 1 5 6-1 5-4-1-6-3v-2h3l-1-5z" fill="#EBE9E9"/>
<path transform="translate(1518,1428)" d="m0 0h2v2l-3 1-3 3-11 5-3 3-5 1-3-2 16-8z" fill="#3E9694"/>
<path transform="translate(1261,1466)" d="m0 0h8v2h9l13 2 1 2h-15l-16-5z" fill="#3B9596"/>
<path transform="translate(616,933)" d="m0 0 3 1v11l-4 10h-3l1-7 3-8z" fill="#29222C"/>
<path transform="translate(801,907)" d="m0 0h3l-1 5 1 3-1 2h-9l1-5z" fill="#FAEDE0"/>
<path transform="translate(849,975)" d="m0 0 7 1 2 1-1 3-5 3-5-1v-5z" fill="#5EA490"/>
<path transform="translate(1258,867)" d="m0 0 2 1-1 19-3 14h-1l2-20v-11l-8 6 2-4 5-4z" fill="#EFC484"/>
<path transform="translate(1047,1038)" d="m0 0 4 1-2 4-1 5-4-1-1-5-1 2-6-2h-7v-1z" fill="#FDF7F2"/>
<path transform="translate(538,809)" d="m0 0 9 1-1 4-2 2h-7l-1-4v-2z" fill="#539F89"/>
<path transform="translate(167,435)" d="m0 0 4 1-5 5-8 11-3 5-2-1 2-5 8-11z" fill="#72BFC4"/>
<path transform="translate(688,946)" d="m0 0h6l-4 2h-2l-1 2-7 4-7 1v-3z" fill="#72BBBB"/>
<path transform="translate(399,1137)" d="m0 0h7v2l-6 3-12-2-5-1v-1z" fill="#509D8D"/>
<path transform="translate(1229,948)" d="m0 0 4 1-1 5-6 4-2-1v-3h2l1-4z" fill="#FDFDFD"/>
<path transform="translate(847,818)" d="m0 0 3 1-7 5-11 5h-2l1-3z" fill="#2B404B"/>
<path transform="translate(386,472)" d="m0 0 3 1-3 6-4 6h-2v2l-2-1 3-8 3-4h2z" fill="#74BDBE"/>
<path transform="translate(1381,1070)" d="m0 0h4l-1 10-4-1-1-1 1-7z" fill="#FDFCFB"/>
<path transform="translate(924,574)" d="m0 0h1l1 11h-2v2l-3 1-1-1 1-8z" fill="#FDF7F2"/>
<path transform="translate(902,557)" d="m0 0h2v10l-2 4h-3v-6z" fill="#FDFDFD"/>
<path transform="translate(781,850)" d="m0 0 4 1 4 5-2 1-7-1-1-5z" fill="#FDF7F2"/>
<path transform="translate(561,786)" d="m0 0 4 1v4l2 1-2 3h-5l-1-2 2-5z" fill="#389497"/>
<path transform="translate(1153,674)" d="m0 0h11l4 3v4l-4-2-6-2v-2h-5z" fill="#DE4302"/>
<path transform="translate(678,662)" d="m0 0 5 1h15l-1 2-7 1-9-1v2l3 1h-5l-2-2z" fill="#63A793"/>
<path transform="translate(860,617)" d="m0 0 5 2v2h2l3 5-1 3-6-3 2-2-4-4-4-2z" fill="#C2BDA3"/>
<path transform="translate(441,503)" d="m0 0 2 2-3 6-2 6h-3v2l-4 1 7-11z" fill="#70B9B7"/>
<path transform="translate(136,1459)" d="m0 0h2l2 9v4l-4-1-1-11z" fill="#3E9593"/>
<path transform="translate(554,848)" d="m0 0h6l1 2-4 4h-5l-1-2z" fill="#73B6AE"/>
<path transform="translate(1380,1468)" d="m0 0h7l-4 3-2 1h-11l3-3z" fill="#389498"/>
<path transform="translate(840,927)" d="m0 0h2v2l-5 2v2l-7 5-2-1 3-4-2-1 7-3z" fill="#F9E9D3"/>
<path transform="translate(870,1010)" d="m0 0h2l1 3-5 4-4-2v-4z" fill="#55A08A"/>
<path transform="translate(568,793)" d="m0 0 4 1 2 3v3l-8-1z" fill="#FDF7F2"/>
<path transform="translate(829,933)" d="m0 0h2l-2 4-5 4h-7l-2-2 9-1v-2l5-1z" fill="#FDFBF9"/>
<path transform="translate(910,531)" d="m0 0h3l-1 7-3 8h-1v-7l2-4-4-2z" fill="#F7E0BF"/>
<path transform="translate(1518,1428)" d="m0 0h2v2l-3 1-3 3-6 3-4-1 4-3z" fill="#419892"/>
<path transform="translate(816,893)" d="m0 0 2 1-8 8-1-2-4-2z" fill="#EEBA53"/>
<path transform="translate(495,478)" d="m0 0h7l-1 5-5 1z" fill="#3E9696"/>
<path transform="translate(1063,1040)" d="m0 0 5 1v5l-5 1-1-1v-5z" fill="#FDF7F2"/>
<path transform="translate(676,890)" d="m0 0 5 2-1 5-4-1-2-1 1-4z" fill="#FEFEFE"/>
<path transform="translate(450,1113)" d="m0 0 2 3 3 3 1 8-3-1-4-11z" fill="#FDFDFD"/>
<path transform="translate(873,898)" d="m0 0 3 3-8 4-6 7v-3l7-8 4-1z" fill="#72BCBE"/>
<path transform="translate(1146,680)" d="m0 0 8 1 2 3-3 2-1 3-4-1v-2h3l-1-5z" fill="#D1C1B5"/>
<path transform="translate(1536,1437)" d="m0 0 6 1-1 3-9 1 2-4z" fill="#389498"/>
<path transform="translate(338,1111)" d="m0 0h1v16l-3-4-1-5 3-1z" fill="#57A18B"/>
<path transform="translate(679,898)" d="m0 0 2 1-4 5h-2v3h-2l-2-6 7-2z" fill="#F0C9A0"/>
<path transform="translate(161,446)" d="m0 0h2l-2 7-1 2h-2l-2 4-2 1 2-5 3-6z" fill="#3F9694"/>
<path transform="translate(118,1463)" d="m0 0 4 1 1 8h-4z" fill="#348E97"/>
<path transform="translate(1166,1458)" d="m0 0 6 1 1 3-3 1-5-1-1-3z" fill="#389498"/>
<path transform="translate(438,1105)" d="m0 0 4 1-2 5h-3l-3-4z" fill="#FEFEFE"/>
<path transform="translate(376,700)" d="m0 0 3 1 2 7-1 4-2-9-8 4 1-3z" fill="#FDF7F2"/>
<path transform="translate(395,525)" d="m0 0 5 1 6 3 7 1v1h-10v-2l-5-1-3-1z" fill="#72BCBD"/>
<path transform="translate(870,893)" d="m0 0 3 1-1 4 1 2-7 1 3-7z" fill="#FAF7FD"/>
<path transform="translate(509,675)" d="m0 0h21l1 5-2-1v-2l-20-1z" fill="#75B1A0"/>
<path transform="translate(555,828)" d="m0 0 2 1-3 5h-5v-3z" fill="#57A18D"/>
<path transform="translate(949,566)" d="m0 0 3 1-1 6-5 4 1-6z" fill="#EEB953"/>
<path transform="translate(177,432)" d="m0 0 5 1 1 4h-6l-1-3z" fill="#6EBBBD"/>
<path transform="translate(1126,679)" d="m0 0 2 2-10 10v-3z" fill="#F5D8B6"/>
<path transform="translate(152,1463)" d="m0 0 3 1v8h-3z" fill="#31818B"/>
</svg>